<?xml version="1.0" encoding="utf-8"?>
<svg version="1.1" xmlns:xlink="http://www.w3.org/1999/xlink" width="6px" height="12px" xmlns="http://www.w3.org/2000/svg">
  <g transform="matrix(1 0 0 1 -2048 -1559 )">
    <path d="M 5.89690721649484 0.721442885771542  C 5.96563573883162 0.801603206412824  6 0.893787575150299  6 0.997995991983968  C 6 1.10220440881763  5.96563573883162 1.19438877755511  5.89690721649484 1.27454909819639  L 1.84536082474227 6  L 5.89690721649484 10.7254509018036  C 5.96563573883162 10.8056112224449  6 10.8977955911824  6 11.002004008016  C 6 11.1062124248497  5.96563573883162 11.1983967935872  5.89690721649484 11.2785571142285  L 5.38144329896907 11.8797595190381  C 5.3127147766323 11.9599198396794  5.23367697594502 12  5.14432989690722 12  C 5.05498281786942 12  4.97594501718213 11.9599198396794  4.90721649484536 11.8797595190381  L 0.103092783505155 6.27655310621242  C 0.0343642611683849 6.19639278557114  0 6.10420841683367  0 6  C 0 5.89579158316633  0.0343642611683849 5.80360721442886  0.103092783505155 5.72344689378758  L 4.90721649484536 0.120240480961924  C 4.97594501718213 0.0400801603206409  5.05498281786942 0  5.14432989690722 0  C 5.23367697594502 0  5.3127147766323 0.0400801603206409  5.38144329896907 0.120240480961924  L 5.89690721649484 0.721442885771542  Z " fill-rule="nonzero" fill="#c7c7cc" stroke="none" transform="matrix(1 0 0 1 2048 1559 )" />
  </g>
</svg>