<?xml version="1.0" encoding="utf-8"?>
<svg version="1.1" xmlns:xlink="http://www.w3.org/1999/xlink" width="8px" height="8px" xmlns="http://www.w3.org/2000/svg">
  <g transform="matrix(1 0 0 1 -1115 -847 )">
    <path d="M 1119 847  C 1121.24 847  1123 848.76  1123 851  C 1123 853.24  1121.24 855  1119 855  C 1116.76 855  1115 853.24  1115 851  C 1115 848.76  1116.76 847  1119 847  Z " fill-rule="nonzero" fill="#dcdcdb" stroke="none" />
    <path d="M 1119 847.5  C 1120.96 847.5  1122.5 849.04  1122.5 851  C 1122.5 852.96  1120.96 854.5  1119 854.5  C 1117.04 854.5  1115.5 852.96  1115.5 851  C 1115.5 849.04  1117.04 847.5  1119 847.5  Z " stroke-width="1" stroke="#dcdcdb" fill="none" />
  </g>
</svg>