<?xml version="1.0" encoding="utf-8"?>
<svg version="1.1" xmlns:xlink="http://www.w3.org/1999/xlink" width="126px" height="10px" preserveAspectRatio="xMinYMid meet" viewBox="329 206  126 8" xmlns="http://www.w3.org/2000/svg">
  <path d="M 334 312  L 334 253  A 3 3 0 0 0 337 250 A 3 3 0 0 0 334 247 L 334 215  A 5 5 0 0 1 339 210 L 445 210  A 5 5 0 0 0 450 205 L 450 75  A 5 5 0 0 1 455 70 L 1133 70  A 5 5 0 0 1 1138 75 L 1138 108  " stroke-width="2" stroke="#0099cc" fill="none" />
  <path d="M 1130.4 107  L 1138 114  L 1145.6 107  L 1130.4 107  Z " fill-rule="nonzero" fill="#0099cc" stroke="none" />
</svg>