<?xml version="1.0" encoding="utf-8"?>
<svg version="1.1" xmlns:xlink="http://www.w3.org/1999/xlink" width="16px" height="16px" xmlns="http://www.w3.org/2000/svg">
  <g transform="matrix(1 0 0 1 -843 -170 )">
    <path d="M 851 171  C 854.92 171  858 174.08  858 178  C 858 181.92  854.92 185  851 185  C 847.08 185  844 181.92  844 178  C 844 174.08  847.08 171  851 171  Z " fill-rule="nonzero" fill="#ffffff" stroke="none" fill-opacity="0" />
    <path d="M 851 171  C 854.92 171  858 174.08  858 178  C 858 181.92  854.92 185  851 185  C 847.08 185  844 181.92  844 178  C 844 174.08  847.08 171  851 171  Z " stroke-width="2" stroke="#000000" fill="none" />
  </g>
</svg>