<?xml version="1.0" encoding="utf-8"?>
<svg version="1.1" xmlns:xlink="http://www.w3.org/1999/xlink" width="23px" height="23px" xmlns="http://www.w3.org/2000/svg">
  <g transform="matrix(1 0 0 1 -2359 -1995 )">
    <path d="M 2370.5 1995  C 2376.94 1995  2382 2000.06  2382 2006.5  C 2382 2012.94  2376.94 2018  2370.5 2018  C 2364.06 2018  2359 2012.94  2359 2006.5  C 2359 2000.06  2364.06 1995  2370.5 1995  Z " fill-rule="nonzero" fill="#ffffff" stroke="none" />
    <path d="M 2370.5 1995.5  C 2376.66 1995.5  2381.5 2000.34  2381.5 2006.5  C 2381.5 2012.66  2376.66 2017.5  2370.5 2017.5  C 2364.34 2017.5  2359.5 2012.66  2359.5 2006.5  C 2359.5 2000.34  2364.34 1995.5  2370.5 1995.5  Z " stroke-width="1" stroke="#c9c9c9" fill="none" />
  </g>
</svg>