<?xml version="1.0" encoding="utf-8"?>
<svg version="1.1" xmlns:xlink="http://www.w3.org/1999/xlink" width="21px" height="21px" xmlns="http://www.w3.org/2000/svg">
  <g transform="matrix(1 0 0 1 -2518 -2129 )">
    <path d="M 2528.5 2129  C 2534.38 2129  2539 2133.62  2539 2139.5  C 2539 2145.38  2534.38 2150  2528.5 2150  C 2522.62 2150  2518 2145.38  2518 2139.5  C 2518 2133.62  2522.62 2129  2528.5 2129  Z " fill-rule="nonzero" fill="#ffffff" stroke="none" />
    <path d="M 2528.5 2129.5  C 2534.1 2129.5  2538.5 2133.9  2538.5 2139.5  C 2538.5 2145.1  2534.1 2149.5  2528.5 2149.5  C 2522.9 2149.5  2518.5 2145.1  2518.5 2139.5  C 2518.5 2133.9  2522.9 2129.5  2528.5 2129.5  Z " stroke-width="1" stroke="#09bb07" fill="none" />
  </g>
</svg>