<?xml version="1.0" encoding="utf-8"?>
<svg version="1.1" xmlns:xlink="http://www.w3.org/1999/xlink" width="1673px" height="10px" preserveAspectRatio="xMinYMid meet" viewBox="2199 497  1673 8" xmlns="http://www.w3.org/2000/svg">
  <path d="M 2199 501  L 2529 501  A 3 3 0 0 1 2532 498 A 3 3 0 0 1 2535 501 L 2974 501  A 3 3 0 0 1 2977 498 A 3 3 0 0 1 2980 501 L 3419 501  A 3 3 0 0 1 3422 498 A 3 3 0 0 1 3425 501 L 3862 501  A 5 5 0 0 1 3867 506 L 3867 948  " stroke-width="2" stroke="#0099cc" fill="none" />
  <path d="M 3859.4 947  L 3867 954  L 3874.6 947  L 3859.4 947  Z " fill-rule="nonzero" fill="#0099cc" stroke="none" />
</svg>