<?xml version="1.0" encoding="utf-8"?>
<svg version="1.1" xmlns:xlink="http://www.w3.org/1999/xlink" width="16px" height="16px" xmlns="http://www.w3.org/2000/svg">
  <g transform="matrix(1 0 0 1 -398 -170 )">
    <path d="M 406 171  C 409.92 171  413 174.08  413 178  C 413 181.92  409.92 185  406 185  C 402.08 185  399 181.92  399 178  C 399 174.08  402.08 171  406 171  Z " fill-rule="nonzero" fill="#ffffff" stroke="none" fill-opacity="0" />
    <path d="M 406 171  C 409.92 171  413 174.08  413 178  C 413 181.92  409.92 185  406 185  C 402.08 185  399 181.92  399 178  C 399 174.08  402.08 171  406 171  Z " stroke-width="2" stroke="#000000" fill="none" />
  </g>
</svg>