<?xml version="1.0" encoding="utf-8"?>
<svg version="1.1" xmlns:xlink="http://www.w3.org/1999/xlink" width="16px" height="18px" xmlns="http://www.w3.org/2000/svg">
  <g transform="matrix(1 0 0 1 -2183 -4373 )">
    <path d="M 2191 4374  C 2194.92 4374  2198 4377.52  2198 4382  C 2198 4386.48  2194.92 4390  2191 4390  C 2187.08 4390  2184 4386.48  2184 4382  C 2184 4377.52  2187.08 4374  2191 4374  Z " fill-rule="nonzero" fill="#ffffff" stroke="none" fill-opacity="0" />
    <path d="M 2191 4374  C 2194.92 4374  2198 4377.52  2198 4382  C 2198 4386.48  2194.92 4390  2191 4390  C 2187.08 4390  2184 4386.48  2184 4382  C 2184 4377.52  2187.08 4374  2191 4374  Z " stroke-width="2" stroke="#000000" fill="none" />
  </g>
</svg>