<?xml version="1.0" encoding="utf-8"?>
<svg version="1.1" xmlns:xlink="http://www.w3.org/1999/xlink" width="16px" height="18px" xmlns="http://www.w3.org/2000/svg">
  <g transform="matrix(1 0 0 1 -2617 -4373 )">
    <path d="M 2625 4374  C 2628.92 4374  2632 4377.52  2632 4382  C 2632 4386.48  2628.92 4390  2625 4390  C 2621.08 4390  2618 4386.48  2618 4382  C 2618 4377.52  2621.08 4374  2625 4374  Z " fill-rule="nonzero" fill="#ffffff" stroke="none" fill-opacity="0" />
    <path d="M 2625 4374  C 2628.92 4374  2632 4377.52  2632 4382  C 2632 4386.48  2628.92 4390  2625 4390  C 2621.08 4390  2618 4386.48  2618 4382  C 2618 4377.52  2621.08 4374  2625 4374  Z " stroke-width="2" stroke="#000000" fill="none" />
  </g>
</svg>