<?xml version="1.0" encoding="utf-8"?>
<svg version="1.1" xmlns:xlink="http://www.w3.org/1999/xlink" width="175px" height="88px" xmlns="http://www.w3.org/2000/svg">
  <g transform="matrix(1 0 0 1 -1946 -1115 )">
    <path d="M 1947 1119  A 3 3 0 0 1 1950 1116 L 2117 1116  A 3 3 0 0 1 2120 1119 L 2120 1199  A 3 3 0 0 1 2117 1202 L 1950 1202  A 3 3 0 0 1 1947 1199 L 1947 1119  Z " fill-rule="nonzero" fill="#f2f2f2" stroke="none" />
    <path d="M 1946.5 1119  A 3.5 3.5 0 0 1 1950 1115.5 L 2117 1115.5  A 3.5 3.5 0 0 1 2120.5 1119 L 2120.5 1199  A 3.5 3.5 0 0 1 2117 1202.5 L 1950 1202.5  A 3.5 3.5 0 0 1 1946.5 1199 L 1946.5 1119  Z " stroke-width="1" stroke-dasharray="3,1" stroke="#d8d8d8" fill="none" stroke-dashoffset="0.5" />
  </g>
</svg>