<?xml version="1.0" encoding="utf-8"?>
<svg version="1.1" xmlns:xlink="http://www.w3.org/1999/xlink" width="17px" height="17px" xmlns="http://www.w3.org/2000/svg">
  <g transform="matrix(1 0 0 1 -998 -1807 )">
    <path d="M 1006.5 1807  C 1011.26 1807  1015 1810.74  1015 1815.5  C 1015 1820.26  1011.26 1824  1006.5 1824  C 1001.74 1824  998 1820.26  998 1815.5  C 998 1810.74  1001.74 1807  1006.5 1807  Z " fill-rule="nonzero" fill="#ffffff" stroke="none" />
    <path d="M 1006.5 1807.5  C 1010.98 1807.5  1014.5 1811.02  1014.5 1815.5  C 1014.5 1819.98  1010.98 1823.5  1006.5 1823.5  C 1002.02 1823.5  998.5 1819.98  998.5 1815.5  C 998.5 1811.02  1002.02 1807.5  1006.5 1807.5  Z " stroke-width="1" stroke="#70b603" fill="none" />
  </g>
</svg>